HIERARCHY
ROOT root
{
	OFFSET	0	13.1	24.9
	CHANNELS 6  Xposition Yposition Zposition Xrotation Yrotation Zrotation
	JOINT spine_1
	{
		OFFSET	0	9.99999	0
		CHANNELS 3  Xrotation Yrotation Zrotation
		JOINT spine_2
		{
			OFFSET	0	112	-10
			CHANNELS 3  Xrotation Yrotation Zrotation
			JOINT spine_3
			{
				OFFSET	0	206.5	19.3
				CHANNELS 3  Xrotation Yrotation Zrotation
				JOINT spine_4
				{
					OFFSET	0	110.4	14.6
					CHANNELS 3  Xrotation Yrotation Zrotation
					JOINT neck_1
					{
						OFFSET	0	71.8	-50.3
						CHANNELS 3  Xrotation Yrotation Zrotation
						JOINT neck_2
						{
							OFFSET	0	86.2	-25.8
							CHANNELS 3  Xrotation Yrotation Zrotation
							JOINT head_ee
							{
								OFFSET	0	179.8	-8.7
								CHANNELS 3  Xrotation Yrotation Zrotation
								End Site
								{
									OFFSET	1	0	0
								}
							}
						}
					}
					JOINT left_clavicle
					{
						OFFSET	-43.2	22.4	-70.8
						CHANNELS 3  Xrotation Yrotation Zrotation
						JOINT left_shoulder
						{
							OFFSET	-93.9	-5.79999	48.7
							CHANNELS 3  Xrotation Yrotation Zrotation
							JOINT left_elbow
							{
								OFFSET	-291.4	-30.8	15.2
								CHANNELS 3  Xrotation Yrotation Zrotation
								JOINT left_lowarm_twist
								{
									OFFSET	-110.7	-3.89999	13.6
									CHANNELS 3  Xrotation Yrotation Zrotation
									JOINT left_hand
									{
										OFFSET	-110.7	-3.89999	13.6
										CHANNELS 3  Xrotation Yrotation Zrotation
										JOINT left_ee
										{
											OFFSET	-80.8	-5.10001	12.1
											CHANNELS 3  Xrotation Yrotation Zrotation
											End Site
											{
												OFFSET	1	0	0
											}
										}
									}
								}
							}
						}
					}
					JOINT right_clavicle
					{
						OFFSET	43.2	22.4	-70.8
						CHANNELS 3  Xrotation Yrotation Zrotation
						JOINT right_shoulder
						{
							OFFSET	93.9	-5.79999	48.7
							CHANNELS 3  Xrotation Yrotation Zrotation
							JOINT right_elbow
							{
								OFFSET	291.4	-30.8	15.2
								CHANNELS 3  Xrotation Yrotation Zrotation
								JOINT right_lowarm_twist
								{
									OFFSET	110.7	-3.89999	13.6
									CHANNELS 3  Xrotation Yrotation Zrotation
									JOINT right_hand
									{
										OFFSET	110.7	-3.89999	13.6
										CHANNELS 3  Xrotation Yrotation Zrotation
										JOINT right_ee
										{
											OFFSET	80.8	-5.10001	12.1
											CHANNELS 3  Xrotation Yrotation Zrotation
											End Site
											{
												OFFSET	1	0	0
											}
										}
									}
								}
							}
						}
					}
				}
			}
		}
	}
	JOINT left_hip
	{
		OFFSET	-82.8	-127.5	0.300001
		CHANNELS 3  Xrotation Yrotation Zrotation
		JOINT left_knee
		{
			OFFSET	-28.2	-396.7	2.2
			CHANNELS 3  Xrotation Yrotation Zrotation
			JOINT left_ankle
			{
				OFFSET	-11.7	-411.3	35.4
				CHANNELS 3  Xrotation Yrotation Zrotation
				JOINT left_toes
				{
					OFFSET	0	-60	-88.6
					CHANNELS 3  Xrotation Yrotation Zrotation
					JOINT left_foot_ee
					{
						OFFSET	-22.5	-16.5	-42.2
						CHANNELS 3  Xrotation Yrotation Zrotation
						End Site
						{
							OFFSET	1	0	0
						}
					}
				}
			}
		}
	}
	JOINT right_hip
	{
		OFFSET	82.8	-127.5	0.300001
		CHANNELS 3  Xrotation Yrotation Zrotation
		JOINT right_knee
		{
			OFFSET	28.2	-396.7	2.2
			CHANNELS 3  Xrotation Yrotation Zrotation
			JOINT right_ankle
			{
				OFFSET	11.7	-411.3	35.4
				CHANNELS 3  Xrotation Yrotation Zrotation
				JOINT right_toes
				{
					OFFSET	0	-60	-88.6
					CHANNELS 3  Xrotation Yrotation Zrotation
					JOINT right_foot_ee
					{
						OFFSET	22.5	-16.5	-42.2
						CHANNELS 3  Xrotation Yrotation Zrotation
						End Site
						{
							OFFSET	1	0	0
						}
					}
				}
			}
		}
	}
}
MOTION
Frames: 7
Frame Time: 0.02
2444.29828648 779.966 -1542.72918257 41.0240097351 78.3004748883 -39.2972519214 -1.79884 -0.0169218 -0.915029 -1.79837 0.0413357 -0.914252 -1.79865 0.260256 -0.877403 -1.7997 0.118426 -0.907491 -17.8653 9.07467 13.9907 -17.4133 9.8392 16.4108 -0.0 0.0 -0.0 4.14803 23.7094 8.42013 -21.6957 -19.3461 66.7202 0.611276 -16.8469 0.0905216 -81.8397 -8.05473 5.25119 0.25844 16.185 8.20615 -0.0 0.0 -0.0 10.079 9.97275 -20.0068 -22.7656 46.7997 -46.1209 1.17362 30.1716 -0.316365 -37.2245 2.66094 -3.85428 -1.3352 -5.25478 6.57462 0.0 0.0 0.0 9.27149 35.5168 -21.1148 -41.6688 -0.576334 6.2303 16.8545 -20.0399 -2.62794 -24.3669 0.0 0.0 -0.0 0.0 -0.0 5.19506 32.719 -8.89638 -4.37798 -0.155335 -0.653769 11.7236 -6.88412 1.65643 5.0329 -0.0 -0.0 0.0 0.0 0.0 
2438.58604708 782.019 -1544.58849989 50.9227673892 80.5345104244 -48.8367746477 -1.85849 -0.128227 -0.742959 -1.85819 -0.0806917 -0.749612 -1.85681 0.102919 -0.746885 -1.85759 -0.0163255 -0.753766 -19.2744 8.05228 12.4538 -18.9338 9.04524 14.7694 -0.0 0.0 -0.0 3.8617 23.3706 8.02556 -21.9664 -19.2863 65.825 0.676868 -18.5364 0.110457 -80.7545 -7.91749 5.26895 0.0750824 15.8977 6.95808 -0.0 0.0 -0.0 10.7089 8.64966 -21.3955 -21.9138 45.5325 -46.2889 1.14362 29.5312 -0.301431 -35.9496 2.53106 -3.75484 -1.44792 -4.99216 7.43997 0.0 0.0 0.0 14.432 39.62 -23.5164 -30.9492 0.00654225 4.69227 19.7978 -15.3604 -2.92764 -26.5764 0.0 0.0 -0.0 0.0 -0.0 5.0715 32.1855 -9.79815 -3.43542 -0.126124 -0.512066 13.3383 -11.0128 1.87621 2.64024 -0.0 -0.0 0.0 0.0 0.0 
2431.43124847 780.26 -1538.17928637 67.7454909261 83.2087340089 -65.0655786574 -1.74835 -0.24104 -0.839319 -1.74798 -0.187145 -0.852954 -1.74474 0.0228888 -0.872942 -1.74578 -0.115258 -0.865603 -16.8485 9.06052 10.6132 -16.6589 11.4411 13.1754 -0.0 0.0 -0.0 3.94477 23.2015 8.14214 -21.4493 -19.1666 65.8687 0.645587 -17.7346 0.10072 -78.6555 -7.65102 5.29583 0.360621 14.6651 8.26786 -0.0 0.0 -0.0 10.2126 8.26544 -20.3092 -21.9289 45.6714 -46.7331 1.14202 29.4968 -0.300644 -36.0831 2.54456 -3.76539 -1.35197 -4.15637 7.18486 0.0 0.0 0.0 19.0687 43.5577 -26.5787 -25.1972 0.197867 3.83061 23.9379 -17.9207 -3.52737 -26.936 0.0 0.0 -0.0 0.0 -0.0 4.44712 33.0392 -9.62322 -1.91565 -0.0741219 -0.284628 17.0143 -11.6568 2.36052 -0.823862 0.0 0.0 0.0 0.0 0.0 
2425.50599346 780.194 -1532.67852959 94.0591694362 83.7584629907 -91.0816735668 -1.88055 -0.435443 -0.738771 -1.88033 -0.387552 -0.764981 -1.87471 -0.190894 -0.836029 -1.87555 -0.32053 -0.795393 -17.6603 8.72434 9.97685 -17.5162 11.3162 12.5626 -0.0 0.0 -0.0 3.93058 23.1037 8.1228 -21.7445 -19.0793 65.8444 0.685427 -18.7545 0.113193 -77.9225 -7.55773 5.30289 0.253601 15.2986 7.83866 -0.0 0.0 -0.0 10.051 6.90357 -19.9543 -21.3337 46.2948 -47.5516 1.12545 29.1393 -0.292529 -35.7534 2.51127 -3.73928 -1.32522 -3.68344 7.22164 0.0 0.0 0.0 22.4028 45.0306 -28.2523 -23.4377 0.239004 3.56374 23.6384 -17.3148 -3.47274 -26.5603 0.0 0.0 -0.0 0.0 -0.0 4.42812 31.1615 -10.0776 -2.51587 -0.0953814 -0.374292 19.3265 -13.097 2.66099 -1.79073 0.0 0.0 0.0 0.0 0.0 
2419.13855776 781.157 -1525.72314439 116.425575832 83.5470900134 -112.975594975 -1.8518 -0.437803 -0.69002 -1.85162 -0.393009 -0.716478 -1.84631 -0.208318 -0.790187 -1.84703 -0.330496 -0.747374 -17.1774 8.28755 9.1566 -17.0611 10.8345 11.586 -0.0 0.0 -0.0 3.92345 22.8757 8.11384 -21.4927 -19.0691 65.6896 0.670682 -18.3784 0.108498 -77.4269 -7.4946 5.30699 0.152473 15.4153 7.25255 -0.0 0.0 -0.0 10.0283 4.00708 -19.8608 -20.9748 45.7733 -48.1221 1.16961 30.0864 -0.314351 -35.1566 2.45141 -3.69155 -1.3747 -3.01217 7.85614 0.0 0.0 0.0 24.6586 46.4974 -29.4609 -19.7395 0.298647 2.9995 24.5707 -17.2927 -3.58938 -25.6974 0.0 0.0 -0.0 0.0 -0.0 5.02187 30.7021 -10.884 -2.08151 -0.080091 -0.309384 19.0972 -14.0565 2.63696 -4.51853 0.0 0.0 0.0 0.0 0.0 
2418.91492406 781.157 -1524.05232157 118.375673808 83.4317163761 -114.938347495 -1.8518 -0.437803 -0.69002 -1.85162 -0.393009 -0.716478 -1.84631 -0.208318 -0.790187 -1.84703 -0.330496 -0.747374 -17.1774 8.28755 9.1566 -17.0611 10.8345 11.586 -0.0 0.0 -0.0 3.92345 22.8757 8.11384 -21.4927 -19.0691 65.6896 0.670682 -18.3784 0.108498 -77.4269 -7.4946 5.30699 0.152473 15.4153 7.25255 -0.0 0.0 -0.0 10.0283 4.00708 -19.8608 -20.9748 45.7733 -48.1221 1.16961 30.0864 -0.314351 -35.1566 2.45141 -3.69155 -1.3747 -3.01217 7.85614 0.0 0.0 0.0 24.6586 46.4974 -29.4609 -19.7395 0.298647 2.9995 24.5707 -17.2927 -3.58938 -25.6974 0.0 0.0 -0.0 0.0 -0.0 5.02187 30.7021 -10.884 -2.08151 -0.080091 -0.309384 19.0972 -14.0565 2.63696 -4.51853 0.0 0.0 0.0 0.0 0.0 
2418.62931435 781.157 -1521.8325649 120.857169809 83.2672147329 -117.436646708 -1.8518 -0.437803 -0.69002 -1.85162 -0.393009 -0.716478 -1.84631 -0.208318 -0.790187 -1.84703 -0.330496 -0.747374 -17.1774 8.28755 9.1566 -17.0611 10.8345 11.586 -0.0 0.0 -0.0 3.92345 22.8757 8.11384 -21.4927 -19.0691 65.6896 0.670682 -18.3784 0.108498 -77.4269 -7.4946 5.30699 0.152473 15.4153 7.25255 -0.0 0.0 -0.0 10.0283 4.00708 -19.8608 -20.9748 45.7733 -48.1221 1.16961 30.0864 -0.314351 -35.1566 2.45141 -3.69155 -1.3747 -3.01217 7.85614 0.0 0.0 0.0 24.6586 46.4974 -29.4609 -19.7395 0.298647 2.9995 24.5707 -17.2927 -3.58938 -25.6974 0.0 0.0 -0.0 0.0 -0.0 5.02187 30.7021 -10.884 -2.08151 -0.080091 -0.309384 19.0972 -14.0565 2.63696 -4.51853 0.0 0.0 0.0 0.0 0.0 
